<svg viewBox="0 0 50 40" fill="none" xmlns="http://www.w3.org/2000/svg">
<path d="M25.2306 40H39L50 0H25.2306C26.9783 2.56421 28 5.66279 28 9C28 13.264 26.3323 17.1346 23.6181 20C26.3323 22.8654 28 26.736 28 31C28 34.3372 26.9783 37.4358 25.2306 40Z" fill="currentColor"/>
<path d="M17.9375 40H0V0H17.9375C20.4287 2.19883 22 5.41592 22 9C22 12.2976 20.6699 15.2846 18.5168 17.4536C17.4579 18.5204 16.2 19.3893 14.8034 20C16.2 20.6107 17.4579 21.4796 18.5168 22.5464C20.6699 24.7154 22 27.7024 22 31C22 34.5841 20.4287 37.8012 17.9375 40Z" fill="currentColor"/>
</svg>
