<svg  viewBox="0 0 24 24" fill="none" xmlns="http://www.w3.org/2000/svg">
<path fill-rule="evenodd" clip-rule="evenodd" d="M12.0004 1.99994C17.5144 1.99994 22.0003 5.64044 22.0003 10.1152C22.0003 11.9059 21.3059 13.5188 19.8568 15.1082H19.8572C17.7592 17.5228 13.0676 20.4642 12.0004 20.914C10.9625 21.3512 11.0827 20.6672 11.1302 20.3968C11.1315 20.3891 11.1328 20.3818 11.134 20.3748C11.1595 20.2244 11.2768 19.5187 11.2768 19.5187C11.3104 19.2634 11.3453 18.8673 11.2444 18.6146C11.1324 18.3362 10.6891 18.1918 10.3635 18.1214C5.55786 17.4863 2.00031 14.1266 2.00031 10.1152C2.00031 5.64044 6.48664 1.99994 12.0004 1.99994ZM9.97252 7.95274H9.26345C9.158 7.95274 9.07242 8.03832 9.07242 8.14367V12.508C9.07242 12.6134 9.158 12.6989 9.26345 12.6989H9.97252C10.0781 12.6989 10.1635 12.6134 10.1635 12.508V8.14367C10.1635 8.03832 10.0781 7.95274 9.97252 7.95274ZM8.47219 12.5079C8.47219 12.6135 8.3867 12.6989 8.28126 12.6989H5.47177C5.36632 12.6989 5.28084 12.6135 5.28084 12.5079V8.14374C5.28084 8.03829 5.36632 7.95281 5.47177 7.95281H6.18103C6.28601 7.95281 6.37187 8.03867 6.37187 8.14374V11.6078H8.28126C8.38624 11.6078 8.47219 11.6937 8.47219 11.7987V12.5079ZM15.8641 12.6989H18.6736C18.779 12.6989 18.8645 12.6135 18.8645 12.5079V11.7987C18.8645 11.6937 18.7785 11.6078 18.6736 11.6078H16.7643V10.8714H18.6736C18.779 10.8714 18.8645 10.7859 18.8645 10.6805V9.97121C18.8645 9.86623 18.7785 9.78028 18.6736 9.78028H16.7643V9.04384H18.6736C18.779 9.04384 18.8645 8.95836 18.8645 8.85291V8.14374C18.8645 8.03867 18.7785 7.95281 18.6736 7.95281H15.8641C15.7586 7.95281 15.6731 8.03829 15.6731 8.14374V12.5079C15.6731 12.6135 15.7586 12.6989 15.8641 12.6989ZM14.0913 7.95274H14.8005C14.9059 7.95274 14.9914 8.03832 14.9914 8.14367V12.508C14.9914 12.6134 14.9059 12.6989 14.8005 12.6989H14.0953C14.0779 12.6989 14.0612 12.6964 14.0453 12.6922L14.044 12.6919L14.0426 12.6915C14.0381 12.6903 14.0337 12.6888 14.0294 12.6873L14.0234 12.685C14.0202 12.6838 14.0172 12.6825 14.014 12.681C14.0108 12.6797 14.0078 12.6782 14.0048 12.6765C14.0028 12.6757 14.0011 12.6745 13.9992 12.6735C13.9951 12.6712 13.991 12.6688 13.9872 12.6662L13.985 12.6647C13.9664 12.652 13.9495 12.6361 13.9357 12.6166L11.9364 9.91669V12.508C11.9364 12.6134 11.851 12.6989 11.7455 12.6989H11.0363C10.9309 12.6989 10.8454 12.6134 10.8454 12.508V8.14367C10.8454 8.03832 10.9309 7.95274 11.0363 7.95274H11.7416L11.7455 7.95295L11.7482 7.95312C11.7516 7.95321 11.755 7.95331 11.7584 7.95368L11.7687 7.95481L11.7767 7.95612L11.7881 7.95856L11.7949 7.96034L11.8003 7.96194L11.8065 7.96409L11.8127 7.96634C11.8165 7.96784 11.8202 7.96943 11.8239 7.97112L11.83 7.97412C11.8335 7.9759 11.837 7.97786 11.8405 7.97993L11.8463 7.98339C11.8498 7.98574 11.8532 7.98799 11.8564 7.99033L11.8616 7.99417C11.8652 7.99708 11.8686 7.99998 11.872 8.00298L11.8755 8.00626C11.8779 8.00848 11.8802 8.01079 11.8825 8.01316L11.887 8.01817L11.8883 8.01958C11.8937 8.02576 11.899 8.03232 11.9036 8.03926L13.9004 10.7358V8.14367C13.9004 8.03832 13.9859 7.95274 14.0913 7.95274Z" fill="currentColor"/>
</svg>
