<svg  viewBox="0 0 24 24" fill="none" xmlns="http://www.w3.org/2000/svg">
<path d="M22.0003 3.47059V20.5294C22.0003 20.9194 21.8454 21.2935 21.5696 21.5693C21.2938 21.8451 20.9197 22 20.5297 22H3.47089C3.08087 22 2.70682 21.8451 2.43103 21.5693C2.15524 21.2935 2.00031 20.9194 2.00031 20.5294V3.47059C2.00031 3.08056 2.15524 2.70651 2.43103 2.43073C2.70682 2.15494 3.08087 2 3.47089 2H20.5297C20.9197 2 21.2938 2.15494 21.5696 2.43073C21.8454 2.70651 22.0003 3.08056 22.0003 3.47059ZM7.88266 9.64706H4.94148V19.0588H7.88266V9.64706ZM8.14736 6.41177C8.14892 6.18929 8.10663 5.96869 8.02292 5.76255C7.93921 5.55642 7.81572 5.36879 7.6595 5.21039C7.50328 5.05198 7.31738 4.92589 7.11243 4.83933C6.90748 4.75277 6.68749 4.70742 6.46501 4.70588H6.41207C5.95964 4.70588 5.52574 4.88561 5.20583 5.20552C4.88591 5.52544 4.70619 5.95934 4.70619 6.41177C4.70619 6.86419 4.88591 7.29809 5.20583 7.61801C5.52574 7.93792 5.95964 8.11765 6.41207 8.11765C6.63456 8.12312 6.85595 8.0847 7.06359 8.00458C7.27123 7.92447 7.46105 7.80422 7.6222 7.65072C7.78335 7.49722 7.91267 7.31346 8.00278 7.10996C8.09289 6.90646 8.14202 6.6872 8.14736 6.46471V6.41177ZM19.0591 13.3412C19.0591 10.5118 17.2591 9.41177 15.4709 9.41177C14.8854 9.38245 14.3024 9.50716 13.7802 9.77345C13.2579 10.0397 12.8146 10.4383 12.4944 10.9294H12.4121V9.64706H9.64737V19.0588H12.5885V14.0529C12.546 13.5403 12.7075 13.0315 13.0379 12.6372C13.3684 12.2429 13.841 11.9949 14.3532 11.9471H14.465C15.4003 11.9471 16.0944 12.5353 16.0944 14.0176V19.0588H19.0356L19.0591 13.3412Z" fill="currentColor"/>
</svg>
