<svg  viewBox="0 0 24 24" fill="none" xmlns="http://www.w3.org/2000/svg">
<path fill-rule="evenodd" clip-rule="evenodd" d="M22.0003 12C22.0003 17.5229 17.5232 22 12.0003 22C6.47746 22 2.00031 17.5229 2.00031 12C2.00031 6.47715 6.47746 2 12.0003 2C17.5232 2 22.0003 6.47715 22.0003 12ZM12.3586 9.38244C11.386 9.787 9.44208 10.6243 6.52687 11.8944C6.05349 12.0827 5.80551 12.2669 5.78294 12.4469C5.74478 12.7513 6.12589 12.8711 6.64486 13.0343C6.71545 13.0565 6.78859 13.0795 6.86358 13.1038C7.37416 13.2698 8.06098 13.464 8.41804 13.4717C8.74192 13.4787 9.1034 13.3452 9.5025 13.0711C12.2263 11.2325 13.6323 10.3032 13.7206 10.2831C13.7828 10.269 13.8691 10.2512 13.9276 10.3032C13.9861 10.3552 13.9803 10.4536 13.9741 10.48C13.9364 10.641 12.4404 12.0318 11.6662 12.7515C11.4249 12.9759 11.2537 13.135 11.2187 13.1714C11.1403 13.2528 11.0604 13.3298 10.9836 13.4038C10.5093 13.8611 10.1536 14.204 11.0033 14.764C11.4117 15.0331 11.7384 15.2556 12.0644 15.4776C12.4204 15.7201 12.7755 15.9619 13.235 16.2631C13.352 16.3398 13.4638 16.4195 13.5727 16.4971C13.987 16.7925 14.3593 17.0579 14.8191 17.0155C15.0863 16.991 15.3623 16.7397 15.5025 15.9903C15.8338 14.2193 16.485 10.3821 16.6355 8.80081C16.6487 8.66228 16.6321 8.48498 16.6188 8.40715C16.6054 8.32932 16.5776 8.21842 16.4764 8.13633C16.3566 8.03912 16.1717 8.01861 16.0889 8.02C15.7128 8.0267 15.1358 8.22735 12.3586 9.38244Z" fill="currentColor"/>
</svg>
