<svg  viewBox="0 0 24 24" fill="none" xmlns="http://www.w3.org/2000/svg">
<path d="M11.8091 7.05902C11.3511 7.06746 10.964 7.45766 10.9721 7.90277C10.9805 8.36421 11.3602 8.7252 11.8312 8.7196C12.3035 8.71385 12.6616 8.3491 12.6571 7.87785C12.6533 7.41534 12.2752 7.05051 11.8091 7.05902ZM7.3511 7.91557C7.36819 7.47215 6.98397 7.07275 6.52759 7.05933C6.06033 7.04561 5.67603 7.40269 5.66238 7.8632C5.64858 8.32985 6.00551 8.70373 6.47614 8.71569C6.94272 8.72757 7.33384 8.36996 7.3511 7.91557ZM15.8957 8.67099C14.0391 8.76798 12.4247 9.33078 11.114 10.6023C9.78971 11.887 9.18519 13.4611 9.35043 15.4126C8.62476 15.3226 7.96382 15.2237 7.29911 15.1678C7.06954 15.1484 6.79711 15.1759 6.60266 15.2856C5.9572 15.6498 5.33842 16.061 4.60502 16.5195C4.73958 15.9108 4.82669 15.3778 4.98088 14.8652C5.09429 14.4884 5.04176 14.2788 4.69465 14.0333C2.46598 12.4599 1.52655 10.1051 2.22959 7.68071C2.88003 5.43794 4.47735 4.07778 6.64775 3.36875C9.61013 2.4011 12.9393 3.38815 14.7407 5.74012C15.3913 6.58969 15.7902 7.54323 15.8957 8.67099Z" fill="currentColor"/>
<path d="M17.6887 12.3843C17.3256 12.3818 17.017 12.6791 17.0022 13.046C16.9865 13.4383 17.2915 13.7605 17.6797 13.7615C18.0553 13.7627 18.3521 13.4787 18.3658 13.105C18.3803 12.7117 18.0752 12.387 17.6887 12.3843ZM13.3749 13.7662C13.7492 13.7666 14.0573 13.4737 14.0715 13.1041C14.0864 12.7127 13.7716 12.3845 13.3798 12.3828C12.9919 12.381 12.6667 12.714 12.6802 13.0994C12.693 13.4678 13.0033 13.7658 13.3749 13.7662ZM20.0667 20.2452C19.4788 19.9835 18.9395 19.5907 18.3655 19.5308C17.7935 19.471 17.1922 19.801 16.5939 19.8622C14.7713 20.0486 13.1383 19.5407 11.7919 18.2956C9.23112 15.927 9.59702 12.2954 12.5597 10.3543C15.1928 8.62927 19.0545 9.20435 20.911 11.598C22.5311 13.6866 22.3406 16.4592 20.3629 18.2139C19.7906 18.7217 19.5846 19.1397 19.9518 19.809C20.0196 19.9326 20.0273 20.0891 20.0667 20.2452Z" fill="currentColor"/>
</svg>
