<svg width="60" height="60" viewBox="0 0 60 60" fill="none" xmlns="http://www.w3.org/2000/svg">
<path d="M31.2306 50H45L56 10H31.2306C32.9783 12.5642 34 15.6628 34 19C34 23.264 32.3323 27.1346 29.6181 30C32.3323 32.8654 34 36.736 34 41C34 44.3372 32.9783 47.4358 31.2306 50Z" fill="white"/>
<path d="M23.9375 50H6V10H23.9375C26.4287 12.1988 28 15.4159 28 19C28 22.2976 26.6699 25.2846 24.5168 27.4536C23.4579 28.5204 22.2 29.3893 20.8034 30C22.2 30.6107 23.4579 31.4796 24.5168 32.5464C26.6699 34.7154 28 37.7024 28 41C28 44.5841 26.4287 47.8012 23.9375 50Z" fill="white"/>
</svg>
